HIERARCHY
ROOT Hips
{
	OFFSET 62.890800 8.863803 43.568401
	CHANNELS 6 Xposition Yposition Zposition Zrotation Xrotation Yrotation
	JOINT Chest
	{
		OFFSET -0.160400 1.630001 7.806301
		CHANNELS 6 Xposition Yposition Zposition Zrotation Xrotation Yrotation
		JOINT Chest2
		{
			OFFSET 0.000000 0.000000 3.197998
			CHANNELS 6 Xposition Yposition Zposition Zrotation Xrotation Yrotation
			JOINT Neck
			{
				OFFSET 0.000000 0.000001 7.440701
				CHANNELS 6 Xposition Yposition Zposition Zrotation Xrotation Yrotation
				JOINT Head
				{
					OFFSET 0.000000 0.000000 2.173901
					CHANNELS 6 Xposition Yposition Zposition Zrotation Xrotation Yrotation
					End Site
					{
						OFFSET 0.000000 0.000001 10.420303
					}
				}
			}
			JOINT LeftCollar
			{
				OFFSET 2.426399 -1.880099 4.759399
				CHANNELS 6 Xposition Yposition Zposition Zrotation Xrotation Yrotation
				JOINT LeftShoulder
				{
					OFFSET 4.420197 0.000000 0.000000
					CHANNELS 6 Xposition Yposition Zposition Zrotation Xrotation Yrotation
					JOINT LeftElbow
					{
						OFFSET 0.000000 -0.000001 -10.347099
						CHANNELS 6 Xposition Yposition Zposition Zrotation Xrotation Yrotation
						JOINT LeftWrist
						{
							OFFSET 0.000000 -0.000001 -12.496300
							CHANNELS 6 Xposition Yposition Zposition Zrotation Xrotation Yrotation
							End Site
							{
								OFFSET 0.000000 0.000000 -2.173901
							}
						}
					}
				}
			}
			JOINT RightCollar
			{
				OFFSET -2.781502 -1.903799 5.072601
				CHANNELS 6 Xposition Yposition Zposition Zrotation Xrotation Yrotation
				JOINT RightShoulder
				{
					OFFSET -4.012100 0.000000 0.000000
					CHANNELS 6 Xposition Yposition Zposition Zrotation Xrotation Yrotation
					JOINT RightElbow
					{
						OFFSET 0.000000 -0.000001 -10.346600
						CHANNELS 6 Xposition Yposition Zposition Zrotation Xrotation Yrotation
						JOINT RightWrist
						{
							OFFSET 0.000000 -0.000001 -12.562599
							CHANNELS 6 Xposition Yposition Zposition Zrotation Xrotation Yrotation
							End Site
							{
								OFFSET 0.000000 0.000000 -2.173901
							}
						}
					}
				}
			}
		}
	}
	JOINT LeftHip
	{
		OFFSET 2.047997 -0.047200 -2.693199
		CHANNELS 6 Xposition Yposition Zposition Zrotation Xrotation Yrotation
		JOINT LeftKnee
		{
			OFFSET 0.000000 -0.000001 -18.824400
			CHANNELS 6 Xposition Yposition Zposition Zrotation Xrotation Yrotation
			JOINT LeftAnkle
			{
				OFFSET 0.000000 -0.000002 -19.078199
				CHANNELS 6 Xposition Yposition Zposition Zrotation Xrotation Yrotation
				End Site
				{
					OFFSET 0.000000 -9.342100 0.000001
				}
			}
		}
	}
	JOINT RightHip
	{
		OFFSET -2.129898 -0.022300 -2.538300
		CHANNELS 6 Xposition Yposition Zposition Zrotation Xrotation Yrotation
		JOINT RightKnee
		{
			OFFSET 0.000000 -0.000001 -18.644600
			CHANNELS 6 Xposition Yposition Zposition Zrotation Xrotation Yrotation
			JOINT RightAnkle
			{
				OFFSET 0.000000 -0.000002 -18.801399
				CHANNELS 6 Xposition Yposition Zposition Zrotation Xrotation Yrotation
				End Site
				{
					OFFSET 0.000000 -8.914600 0.000001
				}
			}
		}
	}
}
MOTION
Frames: 10
Frame Time: 0.041667
-11.101814 -48.677883 44.922058 -350.401463 5.059606 9.868836 -0.160401 1.630001 7.806299 -11.426688 -0.486136 -0.094891 0.000001 0.000001 3.198001 12.625939 -0.919989 1.977239 0.000000 -0.000004 7.440702 48.445388 -15.227384 -7.646805 -0.000001 -0.000003 2.173908 5.809362 -5.259013 7.950574 2.426402 -1.880098 4.759401 -176.281486 180.792566 -181.169074 4.420204 -0.000002 -0.000006 -15.273037 -5.658276 -104.888927 -0.000002 0.000003 -10.347101 426.172877 -74.784349 57.432329 0.000002 0.000002 -12.496295 42.615326 147.286636 152.059340 -2.781504 -1.903798 5.072608 -186.859414 -177.890501 194.787556 -4.012098 -0.000006 0.000003 -1.970973 -13.226568 465.410511 0.000009 -0.000002 -10.346590 -46.563985 -4.630736 -2.034463 -0.000001 -0.000005 -12.562590 1222.818056 -171.753521 193.009507 2.047992 -0.047199 -2.693196 17.674793 -16.233818 -22.973876 -0.000001 0.000012 -18.824400 212.115117 172.565467 -180.355038 -0.000002 -0.000001 -19.078199 -44.730547 28.329960 10.278293 -2.129892 -0.022303 -2.538298 -348.908439 5.856270 14.713826 -0.000003 0.000000 -18.644602 126.170082 169.408868 179.399987 0.000000 0.000005 -18.801399 29.884144 63.454746 -18.034572
-11.124405 -48.671490 44.931458 -350.572956 5.048957 10.037471 -0.160404 1.630002 7.806304 -11.253882 -0.532984 -0.311901 0.000005 0.000003 3.198001 12.843290 -0.942272 1.558923 -0.000006 -0.000002 7.440702 48.452891 -14.756629 -7.320806 -0.000012 -0.000000 2.173906 5.720157 -5.520459 8.038573 2.426399 -1.880097 4.759396 -176.816358 180.220948 -180.307814 4.420187 -0.000008 -0.000001 -14.986116 -6.083226 -105.019438 -0.000005 0.000002 -10.347098 423.899216 -74.899923 54.938101 0.000001 0.000004 -12.496298 41.919668 146.839764 152.990664 -2.781509 -1.903795 5.072604 -186.456105 -178.293154 195.625798 -4.012099 -0.000001 0.000008 -2.746091 -13.171543 464.965620 -0.000001 0.000003 -10.346590 -46.753837 -4.600752 -1.995704 0.000003 -0.000005 -12.562594 1222.600692 -171.755762 193.043098 2.047987 -0.047196 -2.693196 20.654376 -17.941464 -22.306302 0.000000 -0.000005 -18.824398 211.405898 172.152568 -180.839176 -0.000001 -0.000004 -19.078199 -47.460618 28.174693 11.604370 -2.129902 -0.022297 -2.538303 -349.285328 5.447191 14.585464 -0.000001 -0.000001 -18.644602 126.572339 169.212814 179.692742 0.000000 0.000000 -18.801397 30.120304 63.306148 -18.074800
-11.160797 -48.674694 44.926651 -350.379634 4.900177 10.143926 -0.160402 1.630005 7.806307 -11.426702 -0.270479 -0.302273 0.000007 0.000007 3.198001 13.086844 -1.056677 1.602881 -0.000001 -0.000002 7.440696 48.315474 -14.873410 -7.327026 -0.000002 -0.000002 2.173907 5.628098 -5.684744 8.088916 2.426403 -1.880095 4.759389 -176.657474 180.232149 -179.988544 4.420200 0.000003 -0.000001 -15.465213 -5.763459 -105.006775 0.000008 0.000003 -10.347092 422.046869 -74.550320 52.478874 -0.000010 0.000002 -12.496300 41.027474 146.614204 153.452153 -2.781501 -1.903796 5.072596 -186.318490 -178.607698 195.662339 -4.012108 -0.000007 -0.000007 -3.199380 -12.996834 464.745578 0.000007 0.000005 -10.346594 -46.620067 -4.470526 -1.877748 -0.000002 0.000001 -12.562599 1222.189351 -171.799407 192.825529 2.047996 -0.047200 -2.693194 21.469605 -18.469547 -22.223784 -0.000006 -0.000004 -18.824390 210.726499 171.890139 -181.019506 0.000000 -0.000006 -19.078201 -47.974060 28.077499 11.911146 -2.129900 -0.022299 -2.538295 -349.284481 5.602223 14.417329 0.000003 -0.000003 -18.644604 126.718423 169.044996 179.718697 -0.000004 -0.000007 -18.801395 29.827798 63.133904 -17.636266
-11.201614 -48.671089 44.919258 -350.072521 4.810273 10.246631 -0.160400 1.629998 7.806303 -11.728202 -0.043902 -0.256377 0.000000 -0.000008 3.197999 13.277426 -1.191348 1.637689 0.000003 -0.000002 7.440707 48.123303 -15.052941 -7.315003 -0.000005 -0.000004 2.173901 5.610857 -5.811969 8.054565 2.426404 -1.880096 4.759403 -176.329625 180.368098 -179.644207 4.420182 -0.000002 0.000002 -16.170693 -5.446354 -105.027689 -0.000006 -0.000003 -10.347100 420.201707 -74.103885 50.169136 -0.000001 0.000000 -12.496289 39.829377 146.231249 154.223745 -2.781504 -1.903795 5.072604 -186.106590 -179.014846 195.611782 -4.012094 -0.000001 0.000003 -3.632213 -12.787304 464.531165 -0.000000 -0.000002 -10.346600 -46.546001 -4.292185 -1.681820 -0.000000 -0.000001 -12.562594 1221.882921 -171.740845 192.848547 2.047993 -0.047201 -2.693195 23.382038 -19.688988 -21.697928 -0.000001 -0.000002 -18.824396 209.600870 171.466107 -181.416135 -0.000001 -0.000005 -19.078199 -49.453821 27.881041 12.690686 -2.129896 -0.022302 -2.538298 -349.469771 5.624695 14.306725 -0.000001 0.000002 -18.644602 126.830029 168.758415 179.795673 0.000002 -0.000001 -18.801394 29.587270 62.949851 -17.042352
-11.249016 -48.663391 44.912952 -349.794533 4.794217 10.327594 -0.160399 1.630005 7.806297 -12.017681 0.005126 -0.235394 0.000003 0.000006 3.197997 13.537751 -1.224778 1.671604 -0.000003 0.000004 7.440697 47.831524 -15.125193 -7.304530 0.000007 -0.000000 2.173907 5.577141 -6.055028 8.002887 2.426397 -1.880099 4.759390 -176.158871 180.397112 -179.182691 4.420193 -0.000003 -0.000001 -16.763400 -4.925806 -105.070268 0.000011 -0.000002 -10.347102 418.443562 -73.651146 47.463664 -0.000003 0.000000 -12.496294 38.730728 146.257149 154.569435 -2.781505 -1.903798 5.072593 -185.817591 -179.472332 195.698689 -4.012093 0.000000 -0.000002 -4.200015 -12.671336 464.212933 0.000006 -0.000002 -10.346599 -46.308047 -4.058118 -1.441624 -0.000001 0.000004 -12.562590 1221.482508 -171.778547 192.630186 2.047997 -0.047193 -2.693198 26.220910 -21.423430 -20.773259 -0.000002 0.000005 -18.824400 208.183360 170.877167 -181.946117 -0.000002 -0.000010 -19.078201 -51.644481 27.586045 13.845666 -2.129901 -0.022296 -2.538302 -349.660224 5.542394 14.215378 -0.000002 0.000001 -18.644602 127.011862 168.429282 179.905844 0.000003 -0.000003 -18.801399 29.227056 62.620943 -16.476694
-11.309311 -48.663593 44.896053 -349.006356 4.645900 10.331678 -0.160404 1.630007 7.806305 -12.782060 0.322875 -0.106094 0.000009 -0.000005 3.197988 13.812332 -1.324606 1.712734 -0.000004 -0.000000 7.440697 47.477249 -15.164943 -7.316618 0.000003 0.000001 2.173906 5.569782 -6.281227 7.929480 2.426400 -1.880099 4.759396 -176.137861 180.298553 -178.966871 4.420197 0.000003 -0.000001 -17.339047 -5.216563 -104.834934 -0.000006 0.000004 -10.347100 416.856035 -73.126170 45.587227 -0.000002 -0.000001 -12.496298 36.972753 145.996755 155.471539 -2.781500 -1.903799 5.072600 -185.536488 -179.933875 195.763194 -4.012100 0.000003 -0.000000 -4.954002 -12.519034 463.877980 0.000009 0.000000 -10.346592 -45.774463 -3.965898 -1.432964 0.000004 -0.000002 -12.562594 1220.873255 -171.856698 192.551420 2.047998 -0.047198 -2.693195 27.418456 -22.309799 -20.308820 -0.000001 0.000004 -18.824398 207.230084 170.490428 -182.254787 0.000001 -0.000004 -19.078201 -52.991814 27.406095 14.617373 -2.129899 -0.022299 -2.538294 -349.797756 5.930296 14.027875 -0.000003 0.000000 -18.644606 127.875935 168.006288 179.803842 -0.000001 -0.000002 -18.801399 27.582720 61.890468 -15.705964
-11.368500 -48.660091 44.876652 -348.195503 4.510703 10.293794 -0.160401 1.629998 7.806303 -13.577367 0.609762 0.097880 -0.000001 -0.000002 3.198010 14.107630 -1.440119 1.756658 -0.000003 0.000000 7.440704 47.089660 -15.188131 -7.341631 -0.000002 0.000000 2.173908 5.608861 -6.475593 7.839957 2.426398 -1.880098 4.759406 -176.122042 180.168998 -178.708129 4.420188 0.000002 -0.000002 -17.897377 -5.217718 -104.653839 0.000001 0.000003 -10.347099 416.124576 -72.353656 44.189569 0.000001 0.000001 -12.496302 34.869335 145.869727 156.149025 -2.781508 -1.903797 5.072610 -185.207765 -180.446126 195.818819 -4.012093 0.000002 -0.000003 -5.664614 -12.584513 463.498987 -0.000006 0.000004 -10.346588 -44.920395 -3.823981 -1.312442 -0.000001 -0.000005 -12.562598 1220.227502 -171.919195 192.467313 2.047997 -0.047195 -2.693195 29.074456 -23.404171 -19.595126 -0.000001 0.000003 -18.824398 206.158359 170.020047 -182.642346 0.000001 -0.000003 -19.078201 -54.715310 27.170021 15.540574 -2.129897 -0.022300 -2.538298 -349.982636 6.292326 13.878189 -0.000005 -0.000001 -18.644606 128.549693 167.600616 179.725418 0.000001 -0.000003 -18.801399 26.154606 61.154044 -14.817800
-11.425827 -48.646088 44.862755 -347.680862 4.488854 10.349705 -0.160398 1.630005 7.806303 -14.090664 0.660410 0.069266 -0.000003 0.000005 3.198004 14.436899 -1.526332 1.821391 -0.000001 -0.000006 7.440700 46.693321 -15.014796 -7.355739 0.000000 0.000003 2.173913 5.619901 -6.677048 7.735264 2.426404 -1.880101 4.759395 -176.754053 179.523558 -178.258921 4.420195 -0.000004 0.000003 -17.882905 -5.852500 -104.533470 -0.000004 0.000001 -10.347095 412.625333 -72.323896 40.138730 0.000002 -0.000000 -12.496301 33.459485 145.562423 157.003004 -2.781501 -1.903798 5.072601 -184.628565 -181.248646 195.816838 -4.012095 0.000001 -0.000000 -6.811880 -12.494257 463.190426 0.000007 -0.000005 -10.346591 -44.483755 -3.716159 -1.198721 -0.000006 -0.000001 -12.562597 1219.740755 -171.951611 192.219459 2.047997 -0.047194 -2.693196 32.474800 -25.264571 -18.135667 -0.000003 0.000000 -18.824398 204.266752 169.418567 -183.270464 0.000001 -0.000002 -19.078199 -57.098148 26.810642 16.784959 -2.129893 -0.022297 -2.538299 -350.312698 6.278391 13.697151 -0.000004 0.000004 -18.644604 129.606186 167.133786 179.806998 -0.000001 -0.000000 -18.801399 24.773192 60.282129 -14.183405
-11.495026 -48.637390 44.846748 -347.149583 4.474251 10.446893 -0.160406 1.629997 7.806308 -14.627448 0.775332 0.079993 0.000000 -0.000002 3.198008 14.717029 -1.570473 1.862754 -0.000005 -0.000003 7.440706 46.477726 -14.941008 -7.344940 -0.000005 0.000001 2.173906 5.532435 -6.825140 7.672524 2.426401 -1.880097 4.759402 -177.508366 181.762453 -178.199676 4.420195 0.000002 0.000008 -17.523709 -4.093331 -103.133186 -0.000005 0.000007 -10.347095 409.279224 -72.107530 36.292398 0.000008 -0.000001 -12.496296 31.897100 145.337369 157.434262 -2.781500 -1.903802 5.072608 -184.141627 -181.741935 195.981637 -4.012096 -0.000004 -0.000012 -7.863283 -12.201214 462.635651 0.000001 0.000008 -10.346588 -44.250921 -3.644928 -1.140582 -0.000002 -0.000007 -12.562591 1219.386132 -172.156817 192.285453 2.047999 -0.047204 -2.693191 34.844965 -26.661531 -17.077174 0.000001 -0.000007 -18.824400 202.998154 168.898639 -183.733168 -0.000004 -0.000003 -19.078197 -58.971573 26.514274 17.761050 -2.129905 -0.022305 -2.538298 -350.508315 6.323566 13.426822 -0.000001 -0.000003 -18.644602 130.853953 166.638693 179.794949 -0.000004 -0.000000 -18.801394 22.979587 59.183965 -13.642943
-11.561310 -48.627884 44.816051 -346.495059 4.318518 10.365740 -0.160398 1.629997 7.806302 -14.115896 1.098260 0.452761 0.000009 0.000007 3.197999 13.861913 -1.659781 1.761339 -0.000005 0.000007 7.440709 46.245722 -14.905757 -7.218996 0.000002 0.000003 2.173899 5.524830 -6.972349 7.685156 2.426405 -1.880097 4.759402 -177.691907 181.775089 -178.107742 4.420207 -0.000001 -0.000012 -17.865796 -4.467132 -102.357372 -0.000007 0.000006 -10.347099 405.988329 -71.908293 32.461662 0.000002 0.000004 -12.496315 30.126827 145.090553 158.324331 -2.781503 -1.903795 5.072609 -183.840989 -181.942524 196.225434 -4.012099 -0.000003 -0.000004 -8.751508 -11.799392 461.931103 -0.000008 0.000004 -10.346592 -43.566812 -3.631372 -1.082179 -0.000002 -0.000004 -12.562601 1218.832613 -172.168824 192.043732 2.048004 -0.047207 -2.693196 37.699765 -27.988597 -15.680473 0.000006 0.000004 -18.824402 201.544908 168.290930 -184.237755 -0.000004 -0.000002 -19.078197 -61.158641 26.166299 18.883769 -2.129892 -0.022304 -2.538297 -350.451761 6.706305 13.299906 0.000000 -0.000007 -18.644600 132.156716 166.101799 179.594456 -0.000006 0.000006 -18.801399 20.448447 58.043105 -12.461298
